<?xml version="1.0" encoding="utf-8"?>
<!-- Generator: Adobe Illustrator 27.9.4, SVG Export Plug-In . SVG Version: 9.03 Build 54784)  -->
<svg version="1.1" id="Layer_1" xmlns:serif="http://www.serif.com/"
	 xmlns="http://www.w3.org/2000/svg" xmlns:xlink="http://www.w3.org/1999/xlink" x="0px" y="0px" viewBox="0 0 48 48"
	 style="enable-background:new 0 0 48 48;" xml:space="preserve">
<style type="text/css">
	.st0{fill-rule:evenodd;clip-rule:evenodd;fill:#FFB000;}
</style>
<g transform="translate(-106 -371)">
	<g transform="translate(7 25)">
		<g id="ngicon">
			<path class="st0" d="M119.9,390h6.2c0.6,0,1-0.4,1-1s-0.4-1-1-1h-6.2c-0.6,0-1,0.4-1,1S119.3,390,119.9,390z M117.8,386.9h10.3
				c0.6,0,1-0.4,1-1s-0.4-1-1-1h-10.3c-0.6,0-1,0.4-1,1S117.3,386.9,117.8,386.9z M117.8,383.8h10.3c0.6,0,1-0.4,1-1s-0.4-1-1-1
				h-10.3c-0.6,0-1,0.4-1,1S117.3,383.8,117.8,383.8z M116.8,376.3v3.4c0,0.6,0.4,1,1,1h10.5c0.6,0,1-0.4,1-1c0,0,0-1.7,0-3.4
				c0,0,0,0,0,0c0-1.9,0.8-3.7,2.1-5c2.4-2.3,3.9-5.5,3.9-9c0-6.8-5.5-12.3-12.3-12.3s-12.3,5.5-12.3,12.3c0,3.6,1.5,6.8,4,9
				C116,372.6,116.8,374.4,116.8,376.3z"/>
		</g>
	</g>
</g>
</svg>
