<?xml version="1.0" encoding="utf-8"?>
<!-- Generator: Adobe Illustrator 27.9.4, SVG Export Plug-In . SVG Version: 9.03 Build 54784)  -->
<svg version="1.1" id="Layer_1" xmlns="http://www.w3.org/2000/svg" xmlns:xlink="http://www.w3.org/1999/xlink" x="0px" y="0px"
	 viewBox="0 0 512 512" style="enable-background:new 0 0 512 512;" xml:space="preserve">
<style type="text/css">
	.st0{fill-rule:evenodd;clip-rule:evenodd;fill:#FFB000;}
</style>
<path class="st0" d="M10.3,305.3l38.4,6.1l0.7,2.5c4.6,16.5,11.2,32.4,19.6,47.3l1.3,2.3l-22.9,31.5c-3.5,4.9-3,11.5,1.2,15.8
	l52.6,52.6c4.2,4.2,10.9,4.7,15.8,1.2l31.5-22.9l2.3,1.3c14.9,8.4,30.8,15,47.4,19.6l2.5,0.7l6.1,38.4c0.9,5.9,6,10.3,12,10.3h74.4
	c6,0,11.1-4.4,12-10.3l6.1-38.4l2.5-0.7c16.5-4.6,32.4-11.2,47.3-19.6l2.3-1.3l31.5,22.9c4.9,3.5,11.5,3,15.8-1.2l52.6-52.6
	c4.2-4.2,4.7-10.9,1.2-15.8l-22.9-31.5l1.3-2.3c8.4-14.9,15-30.8,19.6-47.3l0.7-2.5l38.4-6.1c5.9-0.9,10.3-6,10.3-12v-74.4
	c0-6-4.4-11.1-10.3-12l-38.4-6.1l-0.7-2.5c-4.6-16.5-11.2-32.4-19.6-47.4l-1.3-2.3l22.9-31.5c3.5-4.9,3-11.5-1.2-15.8l-52.6-52.6
	c-4.3-4.2-10.9-4.7-15.8-1.2l-31.5,22.9l-2.3-1.3c-14.9-8.4-30.8-15-47.3-19.6l-2.5-0.7l-6.1-38.4c-0.9-5.9-6-10.3-12-10.3h-74.4
	c-6,0-11.1,4.4-12,10.3l-6.1,38.4l-2.5,0.7C181.6,54,165.7,60.6,150.8,69l-2.3,1.3l-31.5-22.9c-4.9-3.5-11.5-3-15.8,1.2l-52.6,52.6
	c-4.2,4.2-4.8,10.9-1.2,15.8l22.9,31.5l-1.3,2.3c-8.4,14.9-15,30.8-19.6,47.4l-0.7,2.5l-38.4,6.1c-5.9,0.9-10.3,6-10.3,12v74.4
	C0,299.2,4.4,304.3,10.3,305.3L10.3,305.3z M317.4,258.3c0.9,6.7,7,11.4,13.6,10.5c6.6-0.8,11.3-6.8,10.6-13.4l-4.2-38.2
	c-0.7-6.7-6.8-11.5-13.5-10.8l-38.2,4.2c-6.7,0.7-11.5,6.7-10.8,13.4c0.7,6.3,6,11,12.3,10.9l8.8-0.1l-43.4,52.4l-44.4-53.6
	c-4.3-5.2-12-5.9-17.2-1.6c-0.6,0.5-1.1,1-1.6,1.6l-38.1,45.9l-1.3-9.2c-8-58.5,32.9-112.5,91.5-120.5S354,182.9,362,241.4
	c8,58.5-32.9,112.5-91.5,120.5c-43.6,6-86.4-15.3-107.9-53.7l-1.4-2.4l37.4-45.2l44.4,53.6c4.3,5.2,11.9,5.9,17.1,1.6
	c0.6-0.5,1.1-1,1.6-1.6l55.4-66.9L317.4,258.3L317.4,258.3z M256,387.3c-72.4,0-131.3-58.9-131.3-131.3S183.6,124.7,256,124.7
	S387.3,183.6,387.3,256S328.4,387.3,256,387.3z"/>
</svg>
