<?xml version="1.0" encoding="utf-8"?>
<!-- Generator: Adobe Illustrator 27.9.4, SVG Export Plug-In . SVG Version: 9.03 Build 54784)  -->
<svg version="1.1" id="Layer_1" xmlns="http://www.w3.org/2000/svg" xmlns:xlink="http://www.w3.org/1999/xlink" x="0px" y="0px"
	 viewBox="0 0 512 512" style="enable-background:new 0 0 512 512;" xml:space="preserve">
<style type="text/css">
	.st0{fill:#FFB000;}
</style>
<g>
	<path class="st0" d="M222.1,427c-0.1,0-0.1,0-0.2,0c-2.5,0-4.8-1.1-6.5-2.9L44,237.7c-2.9-3.2-3.2-8-0.6-11.5
		c2.6-3.5,7.2-4.7,11.2-2.9l156.9,73.5c1.3,0.6,2.9,0.3,3.9-0.7L454.8,45.8c3.2-3.4,8.5-3.8,12.2-0.8s4.5,8.2,2,12.1L230.8,421.9
		c-0.3,0.5-0.7,1-1.2,1.5l-1.1,1C226.9,426.1,224.6,427,222.1,427L222.1,427z"/>
</g>
</svg>
