<?xml version="1.0" encoding="utf-8"?>
<!-- Generator: Adobe Illustrator 27.9.4, SVG Export Plug-In . SVG Version: 9.03 Build 54784)  -->
<svg version="1.1" id="protection" xmlns="http://www.w3.org/2000/svg" xmlns:xlink="http://www.w3.org/1999/xlink" x="0px" y="0px"
	 viewBox="0 0 512 512" style="enable-background:new 0 0 512 512;" xml:space="preserve">
<style type="text/css">
	.st0{fill:#FFB000;}
</style>
<path class="st0" d="M187.7,221.9v119.5h136.5V221.9L187.7,221.9z M375.5,34.1C330.9,24.4,291,12.5,256,0
	c-35,12.5-74.9,24.4-119.5,34.1c-36.7,8-71,13.5-102.4,17.1v170.3c0,114.7,66.7,218.8,170.7,266.9L256,512l51.2-23.6
	c103.9-48.1,170.7-152.2,170.7-266.9V51.2C446.5,47.6,412.2,42.2,375.5,34.1L375.5,34.1z M358.4,341.3c0,18.8-15.4,34.1-34.1,34.1
	H187.7c-18.8,0-34.1-15.4-34.1-34.1V221.9c0-18.8,15.4-34.1,34.1-34.1v-17.1c0-37.7,30.6-68.3,68.3-68.3s68.3,30.5,68.3,68.3v17.1
	c18.8,0,34.1,15.4,34.1,34.1V341.3z M187.7,221.9v119.5h136.5V221.9H187.7z M290.1,170.7c0-18.8-15.4-34.1-34.1-34.1
	s-34.1,15.4-34.1,34.1v17.1h68.3L290.1,170.7L290.1,170.7z"/>
</svg>
